<svg width="24" height="17" viewBox="0 0 24 17" fill="none" xmlns="http://www.w3.org/2000/svg">
<path d="M5.0022 3.14736C5.74066 3.88582 6.47912 4.62428 7.18242 5.43307C8.23736 6.62867 10.1363 4.69461 8.94066 3.67483C7.81538 2.72538 6.7956 1.67043 5.70549 0.685818C5.17802 0.158346 4.36923 0.299005 3.94725 0.896807C3.06813 2.23307 2.04835 3.35834 0.852744 4.41329C0.254942 4.9056 0.887909 6.03087 1.62637 5.74955C2.96263 5.22208 4.08791 4.23746 5.0022 3.14736Z" fill="white"/>
<path d="M19.7011 0.685818C19.1736 0.158346 18.3648 0.299005 17.9429 0.896807C17.0637 2.23307 16.044 3.35834 14.8483 4.41329C14.2505 4.9056 14.8835 6.03087 15.622 5.74955C16.9582 5.22208 18.0484 4.23746 18.9978 3.14736C19.7363 3.88582 20.4747 4.62428 21.178 5.43307C22.233 6.62867 24.1319 4.69461 22.9363 3.67483C21.7758 2.72538 20.756 1.67043 19.7011 0.685818Z" fill="white"/>
<path d="M19.7363 12.1144C18.4352 12.6771 17.3099 13.4507 15.9033 13.8375C14.4967 14.2243 13.055 14.4002 11.6132 14.365C8.80002 14.365 6.33848 13.2397 3.77145 12.2551C3.49013 12.1496 3.20881 12.5364 3.38463 12.7474C3.84178 13.31 4.22859 13.8727 4.82639 14.2947C5.49452 14.7518 6.23299 15.0683 6.97145 15.3848C8.44837 15.9826 10.0308 16.2991 11.6132 16.4046C13.2308 16.51 14.9187 16.2991 16.466 15.8771C17.978 15.4551 19.8418 14.8573 20.9671 13.6969C21.811 12.8529 20.7561 11.6925 19.7363 12.1144Z" fill="white"/>
</svg>