<svg width="24" height="17" viewBox="0 0 24 17" fill="none" xmlns="http://www.w3.org/2000/svg">
<path d="M5.0022 3.02257C5.74066 2.28411 6.47912 1.54564 7.18242 0.736853C8.23736 -0.45875 10.1363 1.47531 8.94066 2.49509C7.81538 3.44454 6.7956 4.49949 5.70549 5.4841C5.17802 6.01158 4.36923 5.87092 3.94725 5.27312C3.06813 3.93685 2.04835 2.81158 0.852744 1.75663C0.254942 1.26433 0.887909 0.139052 1.62637 0.420371C2.96263 0.947843 4.08791 1.93246 5.0022 3.02257Z" fill="white"/>
<path d="M19.7011 5.4841C19.1736 6.01158 18.3648 5.87092 17.9429 5.27312C17.0637 3.93685 16.044 2.81158 14.8483 1.75663C14.2505 1.26433 14.8835 0.139052 15.622 0.420371C16.9582 0.947843 18.0484 1.93246 18.9978 3.02257C19.7363 2.28411 20.4747 1.54564 21.178 0.736853C22.233 -0.45875 24.1319 1.47531 22.9363 2.49509C21.7758 3.44454 20.756 4.49949 19.7011 5.4841Z" fill="white"/>
<path d="M19.7363 16.3419C18.4352 15.7792 17.3099 15.0056 15.9033 14.6188C14.4967 14.232 13.055 14.0561 11.6132 14.0913C8.80002 14.0913 6.33848 15.2166 3.77145 16.2012C3.49013 16.3067 3.20881 15.9199 3.38463 15.7089C3.84178 15.1462 4.22859 14.5836 4.82639 14.1616C5.49452 13.7045 6.23299 13.388 6.97145 13.0715C8.44837 12.4737 10.0308 12.1572 11.6132 12.0517C13.2308 11.9463 14.9187 12.1572 16.466 12.5792C17.978 13.0012 19.8418 13.599 20.9671 14.7594C21.811 15.6034 20.7561 16.7638 19.7363 16.3419Z" fill="white"/>
</svg>
